<?xml version="1.0" encoding="utf-8"?>
<!-- Generator: $$$/GeneralStr/196=Adobe Illustrator 27.6.0, SVG Export Plug-In . SVG Version: 6.00 Build 0)  -->
<svg version="1.1" xmlns="http://www.w3.org/2000/svg" xmlns:xlink="http://www.w3.org/1999/xlink" x="0px" y="0px"
	 viewBox="0 0 722 186" style="enable-background:new 0 0 722 186;" xml:space="preserve">
<style type="text/css">
	.st0{display:none;}
	.st1{display:inline;}
	.st2{fill:#171717;}
	.st3{fill:#FFFFFF;}
</style>
<g id="LOGO" class="st0">
	<g class="st1">
		<path class="st2" d="M87.9,57.2c4.6,5.7,10.5,10.2,17.2,13.2c6.7,2.9,14.1,4.2,21.4,3.6c0.3,0,0.6,0,0.9,0.1
			c0.3,0.1,0.5,0.3,0.6,0.6c0.2,0.3,0.2,0.5,0.2,0.8c0,0.3-0.1,0.6-0.3,0.8c-4,6.1-6.5,13.2-7.2,20.4c-0.7,7.3,0.4,14.7,3.1,21.4
			c0.1,0.3,0.1,0.6,0.1,0.8c0,0.3-0.2,0.6-0.4,0.8c-0.2,0.2-0.4,0.4-0.7,0.5c-0.3,0.1-0.6,0.1-0.9,0c-7.1-1.9-14.5-2.1-21.7-0.5
			c-7.2,1.6-13.8,4.9-19.4,9.6c-0.2,0.2-0.5,0.3-0.8,0.3c-0.3,0-0.6,0-0.8-0.1c-0.3-0.1-0.5-0.3-0.7-0.5c-0.2-0.2-0.3-0.5-0.3-0.8
			c-0.4-7.3-2.5-14.4-6.2-20.8C68.5,101.3,63.3,96,57,92.1c-0.2-0.2-0.4-0.4-0.6-0.6c-0.1-0.3-0.2-0.6-0.2-0.8
			c0-0.3,0.1-0.6,0.3-0.8c0.2-0.2,0.4-0.4,0.7-0.5c6.9-2.6,13-6.8,17.9-12.3c4.9-5.5,8.3-12.1,10.1-19.2c0.1-0.3,0.2-0.5,0.4-0.7
			c0.2-0.2,0.5-0.3,0.7-0.4c0.3-0.1,0.6,0,0.9,0C87.5,56.8,87.8,57,87.9,57.2z"/>
		<path class="st2" d="M94.3,27.3c13,0,25.7,3.9,36.5,11.1c10.8,7.2,19.2,17.5,24.2,29.5c5,12,6.3,25.2,3.7,38
			c-2.5,12.7-8.8,24.4-18,33.6s-20.9,15.4-33.6,18c-12.7,2.5-25.9,1.2-38-3.7c-12-5-22.3-13.4-29.5-24.2
			C32.5,118.7,28.6,106,28.6,93c0-17.4,6.9-34.1,19.3-46.4C60.2,34.3,76.9,27.3,94.3,27.3z M94.3,9.7c-16.5,0-32.6,4.9-46.3,14
			c-13.7,9.2-24.4,22.2-30.7,37.4c-6.3,15.2-8,32-4.7,48.1c3.2,16.2,11.2,31,22.8,42.7c11.7,11.7,26.5,19.6,42.7,22.8
			c16.2,3.2,32.9,1.6,48.1-4.7c15.2-6.3,28.2-17,37.4-30.7c9.2-13.7,14-29.8,14-46.3c0-22.1-8.8-43.3-24.4-58.9
			C137.6,18.5,116.4,9.7,94.3,9.7z"/>
		<path class="st2" d="M214.8,110.4h17c0,7.1,6.1,13,16.2,13c10,0,16.3-4.7,16.3-11.4c0-5.9-4.7-8.9-11.2-10.4l-11.9-2.8
			c-16.3-4.3-23.8-12.8-23.8-26c0-14.4,12.9-26,31.1-26c15,0,31.1,8,31.1,26.5H262c0-6.4-6.6-10.8-13.1-10.8
			c-7.7,0-12.9,4.7-12.9,10.8c0,5.5,5.1,8.5,10.5,9.9l13.3,3.3c18.8,4.7,22.9,16.5,22.9,26c0,16.8-16.5,26.7-34.5,26.7
			C231.8,139.2,215.1,128.8,214.8,110.4z M290.9,92.7c0-28.1,21-45.9,46-45.9c25,0,46.1,17.8,46.1,45.9c0,28.1-21.2,46.5-46.2,46.5
			C311.8,139.2,290.9,120.8,290.9,92.7L290.9,92.7z M364.5,92.7c0-17-12.8-28.5-27.8-28.5s-27.6,11.3-27.6,28.5
			c0,17.1,12.6,28.8,27.6,28.8S364.5,109.9,364.5,92.7L364.5,92.7z M452.4,50.1l-3.2,17.6c-4-1.9-8.4-2.9-12.9-3.1
			c-15.9,0-23.4,16.8-23.4,40.8v31.9h-18.6V48.8h18.6v19.9c4.5-15.6,13.3-21.8,24.6-21.8C443.4,46.8,449.6,48.3,452.4,50.1
			L452.4,50.1z M547.2,48.7v88.6h-18.4v-13.2c-5.9,10.1-18.4,15.2-30.2,15.2c-23.8,0-43.5-18.2-43.5-46.3
			c0-28.1,19.7-46.1,43.3-46.1c12.4,0,24.5,4.9,30.4,14.9V48.7L547.2,48.7L547.2,48.7z M528.7,92.7c0-3.7-0.6-7.4-2-10.8
			c-1.4-3.4-3.4-6.6-6-9.2c-2.6-2.6-5.7-4.7-9.1-6.2c-3.4-1.4-7.1-2.2-10.8-2.2c-15,0-27.1,11.6-27.1,28.3
			c0,16.7,12.2,28.8,27.1,28.8C515.7,121.6,528.7,110.6,528.7,92.7L528.7,92.7z M619.7,50.1l-3.2,17.6c-4-1.9-8.4-2.9-12.9-3.1
			c-15.9,0-23.4,16.8-23.4,40.8v31.9h-18.5V48.8h18.6v19.9c4.5-15.6,13.3-21.8,24.5-21.8C610.6,46.8,616.8,48.3,619.7,50.1
			L619.7,50.1z M710.6,100.4h-69.8c2.4,14.4,12.9,21.5,27.2,21.5c10.1,0,19.6-4.3,24.5-12.5l14.7,7.3c-7.7,14.8-23.4,22.4-40.1,22.4
			c-25.3,0-45.1-18.4-45.1-46.5c0-28.1,20.3-45.9,45.1-45.9c24.9,0,43.9,17.8,43.9,45.7C711,95,710.8,97.6,710.6,100.4z M692.7,85.5
			c-1.7-13.9-11.9-21.5-25.3-21.5s-23.6,6.8-26.2,21.5H692.7z"/>
	</g>
</g>
<g id="Ebene_2">
	<g>
		<path class="st3" d="M87.9,57.2c4.6,5.7,10.5,10.2,17.2,13.2c6.7,2.9,14.1,4.2,21.4,3.6c0.3,0,0.6,0,0.9,0.1
			c0.3,0.1,0.5,0.3,0.6,0.6c0.2,0.3,0.2,0.5,0.2,0.8c0,0.3-0.1,0.6-0.3,0.8c-4,6.1-6.5,13.2-7.2,20.4c-0.7,7.3,0.4,14.7,3.1,21.4
			c0.1,0.3,0.1,0.6,0.1,0.8c0,0.3-0.2,0.6-0.4,0.8c-0.2,0.2-0.4,0.4-0.7,0.5c-0.3,0.1-0.6,0.1-0.9,0c-7.1-1.9-14.5-2.1-21.7-0.5
			c-7.2,1.6-13.8,4.9-19.4,9.6c-0.2,0.2-0.5,0.3-0.8,0.3c-0.3,0-0.6,0-0.8-0.1c-0.3-0.1-0.5-0.3-0.7-0.5c-0.2-0.2-0.3-0.5-0.3-0.8
			c-0.4-7.3-2.5-14.4-6.2-20.8C68.5,101.3,63.3,96,57,92.1c-0.2-0.2-0.4-0.4-0.6-0.6c-0.1-0.3-0.2-0.6-0.2-0.8
			c0-0.3,0.1-0.6,0.3-0.8c0.2-0.2,0.4-0.4,0.7-0.5c6.9-2.6,13-6.8,17.9-12.3c4.9-5.5,8.3-12.1,10.1-19.2c0.1-0.3,0.2-0.5,0.4-0.7
			c0.2-0.2,0.5-0.3,0.7-0.4c0.3-0.1,0.6,0,0.9,0C87.5,56.8,87.8,57,87.9,57.2z"/>
		<path class="st3" d="M94.3,27.3c13,0,25.7,3.9,36.5,11.1c10.8,7.2,19.2,17.5,24.2,29.5c5,12,6.3,25.2,3.7,38
			c-2.5,12.7-8.8,24.4-18,33.6s-20.9,15.4-33.6,18c-12.7,2.5-25.9,1.2-38-3.7c-12-5-22.3-13.4-29.5-24.2
			C32.5,118.7,28.6,106,28.6,93c0-17.4,6.9-34.1,19.3-46.4C60.2,34.3,76.9,27.3,94.3,27.3z M94.3,9.7c-16.5,0-32.6,4.9-46.3,14
			c-13.7,9.2-24.4,22.2-30.7,37.4c-6.3,15.2-8,32-4.7,48.1c3.2,16.2,11.2,31,22.8,42.7c11.7,11.7,26.5,19.6,42.7,22.8
			c16.2,3.2,32.9,1.6,48.1-4.7c15.2-6.3,28.2-17,37.4-30.7c9.2-13.7,14-29.8,14-46.3c0-22.1-8.8-43.3-24.4-58.9
			C137.6,18.5,116.4,9.7,94.3,9.7z"/>
		<path class="st3" d="M214.8,110.4h17c0,7.1,6.1,13,16.2,13c10,0,16.3-4.7,16.3-11.4c0-5.9-4.7-8.9-11.2-10.4l-11.9-2.8
			c-16.3-4.3-23.8-12.8-23.8-26c0-14.4,12.9-26,31.1-26c15,0,31.1,8,31.1,26.5H262c0-6.4-6.6-10.8-13.1-10.8
			c-7.7,0-12.9,4.7-12.9,10.8c0,5.5,5.1,8.5,10.5,9.9l13.3,3.3c18.8,4.7,22.9,16.5,22.9,26c0,16.8-16.5,26.7-34.5,26.7
			C231.8,139.2,215.1,128.8,214.8,110.4z M290.9,92.7c0-28.1,21-45.9,46-45.9c25,0,46.1,17.8,46.1,45.9c0,28.1-21.2,46.5-46.2,46.5
			C311.8,139.2,290.9,120.8,290.9,92.7L290.9,92.7z M364.5,92.7c0-17-12.8-28.5-27.8-28.5s-27.6,11.3-27.6,28.5
			c0,17.1,12.6,28.8,27.6,28.8S364.5,109.9,364.5,92.7L364.5,92.7z M452.4,50.1l-3.2,17.6c-4-1.9-8.4-2.9-12.9-3.1
			c-15.9,0-23.4,16.8-23.4,40.8v31.9h-18.6V48.8h18.6v19.9c4.5-15.6,13.3-21.8,24.6-21.8C443.4,46.8,449.6,48.3,452.4,50.1
			L452.4,50.1z M547.2,48.7v88.6h-18.4v-13.2c-5.9,10.1-18.4,15.2-30.2,15.2c-23.8,0-43.5-18.2-43.5-46.3
			c0-28.1,19.7-46.1,43.3-46.1c12.4,0,24.5,4.9,30.4,14.9V48.7L547.2,48.7L547.2,48.7z M528.7,92.7c0-3.7-0.6-7.4-2-10.8
			c-1.4-3.4-3.4-6.6-6-9.2c-2.6-2.6-5.7-4.7-9.1-6.2c-3.4-1.4-7.1-2.2-10.8-2.2c-15,0-27.1,11.6-27.1,28.3
			c0,16.7,12.2,28.8,27.1,28.8C515.7,121.6,528.7,110.6,528.7,92.7L528.7,92.7z M619.7,50.1l-3.2,17.6c-4-1.9-8.4-2.9-12.9-3.1
			c-15.9,0-23.4,16.8-23.4,40.8v31.9h-18.5V48.8h18.6v19.9c4.5-15.6,13.3-21.8,24.5-21.8C610.6,46.8,616.8,48.3,619.7,50.1
			L619.7,50.1z M710.6,100.4h-69.8c2.4,14.4,12.9,21.5,27.2,21.5c10.1,0,19.6-4.3,24.5-12.5l14.7,7.3c-7.7,14.8-23.4,22.4-40.1,22.4
			c-25.3,0-45.1-18.4-45.1-46.5c0-28.1,20.3-45.9,45.1-45.9c24.9,0,43.9,17.8,43.9,45.7C711,95,710.8,97.6,710.6,100.4z M692.7,85.5
			c-1.7-13.9-11.9-21.5-25.3-21.5s-23.6,6.8-26.2,21.5H692.7z"/>
	</g>
</g>
</svg>
