<?xml version="1.0" encoding="UTF-8"?>
<svg width="80px" height="49px" viewBox="0 0 80 49" version="1.1" xmlns="http://www.w3.org/2000/svg" xmlns:xlink="http://www.w3.org/1999/xlink">
    <title>aws/white@1x</title>
    <g id="01---Fundamentals" stroke="none" stroke-width="1" fill="none" fill-rule="evenodd">
        <g id="Logos" transform="translate(-1511.000000, -3693.000000)" fill="#FFFFFF">
            <g id="Fundamentals/Logos/Partners/AWS/White" transform="translate(1511.000000, 3692.000000)">
                <path d="M22.544,19.1129032 C22.5185894,19.9198442 22.6212158,20.7256965 22.848,21.5 C23.081741,22.1632222 23.3707735,22.8053009 23.712,23.4193548 C23.8282427,23.6031327 23.8944603,23.8145128 23.904,24.0322581 C23.8698106,24.3635385 23.6791549,24.6578344 23.392,24.8225806 L21.792,25.9516129 C21.5849844,26.09821 21.3407366,26.1821478 21.088,26.1935484 C20.7874517,26.1827001 20.5043014,26.048721 20.304,25.8225806 C19.9323642,25.4519293 19.6097026,25.0345075 19.344,24.5806452 C19.0773333,24.1290323 18.8053333,23.5913978 18.528,22.9677419 C16.6290208,25.3569434 13.7406219,26.7264511 10.704,26.6774194 C8.74909839,26.7854108 6.83372468,26.0933397 5.392,24.7580645 C4.05545537,23.3875471 3.34778693,21.5163984 3.44,19.5967742 C3.35409195,17.506422 4.21321929,15.4895797 5.776,14.1129032 C7.6286164,12.6422108 9.94941093,11.9025125 12.304,12.0322581 C13.246401,12.0350216 14.1874236,12.1050895 15.12,12.2419355 C16.1013333,12.3817204 17.12,12.5752688 18.176,12.8225806 L18.176,10.8548387 C18.3313788,9.31275458 17.8771868,7.77111683 16.912,6.56451613 C15.6771619,5.60727904 14.1256552,5.16288992 12.576,5.32258065 C11.6108504,5.32751049 10.6496093,5.44660461 9.712,5.67741935 C8.73625293,5.91263 7.77900086,6.21991154 6.848,6.59677419 C6.54703447,6.73619726 6.23698076,6.85475228 5.92,6.9516129 L5.504,6.9516129 C5.13066667,6.9516129 4.944,6.67204301 4.944,6.11290323 L4.944,4.83870968 C4.9211196,4.5149945 4.98757312,4.19121227 5.136,3.90322581 C5.3365365,3.65529878 5.5949067,3.4613438 5.888,3.33870968 C6.95882491,2.82157575 8.07932559,2.41623951 9.232,2.12903226 C10.5856794,1.77865481 11.9784316,1.6051896 13.376,1.61290323 C15.8897243,1.38832351 18.3900806,2.17055399 20.336,3.79032258 C21.93464,5.59309985 22.7323855,7.9764997 22.544,10.3870968 L22.544,19.1129032 Z M11.744,23.1935484 C12.6822916,23.1797811 13.611981,23.0108696 14.496,22.6935484 C15.4704761,22.3532971 16.3375088,21.7576241 17.008,20.9677419 C17.4210899,20.5033564 17.727077,19.9525443 17.904,19.3548387 C18.0882107,18.5949914 18.1742564,17.8143351 18.16,17.0322581 L18.16,15.9032258 C17.3526992,15.7081859 16.5354991,15.5574269 15.712,15.4516129 C14.8842053,15.3448562 14.0505412,15.2909852 13.216,15.2903226 C11.8148418,15.1843978 10.4199988,15.5658073 9.264,16.3709677 C8.418424,17.122965 7.95409561,18.2190852 8,19.3548387 C7.92354785,20.3962039 8.27665957,21.4232343 8.976,22.1935484 C9.73050893,22.8838875 10.7262626,23.2436251 11.744,23.1935484 Z M33.104,26.0967742 C32.7435358,26.1299928 32.3825494,26.0390184 32.08,25.8387097 C31.7967551,25.5511419 31.6022442,25.1869943 31.52,24.7903226 L25.296,4.0483871 C25.1752389,3.69861774 25.0947116,3.33602871 25.056,2.96774194 C25.02849,2.78525249 25.0886919,2.60044911 25.2181687,2.46992813 C25.3476455,2.33940715 25.5309705,2.27871978 25.712,2.30645161 L28.32,2.30645161 C28.685782,2.26948005 29.0530366,2.36061024 29.36,2.56451613 C29.6247492,2.86084616 29.8069251,3.22257114 29.888,3.61290323 L34.352,21.3548387 L38.496,3.61290323 C38.5599762,3.22141958 38.7447288,2.86022208 39.024,2.58064516 C39.3447101,2.38114685 39.7204745,2.29068839 40.096,2.32258065 L42.24,2.32258065 C42.6155255,2.29068839 42.9912899,2.38114685 43.312,2.58064516 C43.5884047,2.86669647 43.7676689,3.23376327 43.824,3.62903226 L48,21.5967742 L52.608,3.62903226 C52.6929376,3.23677021 52.8808135,2.87469904 53.152,2.58064516 C53.4589634,2.37673927 53.826218,2.28560909 54.192,2.32258065 L56.656,2.32258065 C56.8370295,2.29484881 57.0203545,2.35553619 57.1498313,2.48605716 C57.2793081,2.61657814 57.33951,2.80138153 57.312,2.98387097 C57.3252853,3.12333514 57.3252853,3.26376164 57.312,3.40322581 C57.2608979,3.62725498 57.1967875,3.84806527 57.12,4.06451613 L50.72,24.8064516 C50.6377558,25.2031233 50.4432449,25.5672709 50.16,25.8548387 C49.8574506,26.0551474 49.4964642,26.1461218 49.136,26.1129032 L46.8,26.1129032 C46.4216948,26.1528648 46.0416412,26.0556556 45.728,25.8387097 C45.4535324,25.5385131 45.2751175,25.1619444 45.216,24.7580645 L41.072,7.48387097 L36.976,24.7419355 C36.9168825,25.1458153 36.7384676,25.5223841 36.464,25.8225806 C36.1503588,26.0395266 35.7703052,26.1367358 35.392,26.0967742 L33.104,26.0967742 Z M67.28,26.8064516 C65.9014265,26.808745 64.5271314,26.6518076 63.184,26.3387097 C62.115762,26.1219287 61.0821092,25.758318 60.112,25.2580645 C59.5154059,25.0033789 59.1300606,24.4111475 59.1359323,23.7580645 L59.1359323,22.4032258 C59.1359323,21.844086 59.3386667,21.5645161 59.744,21.5645161 C59.9136987,21.5670573 60.0816158,21.5998195 60.24,21.6612903 L60.912,21.9354839 C61.8511017,22.3543792 62.8329826,22.6680861 63.84,22.8709677 C64.8928457,23.0889965 65.9651741,23.1970942 67.04,23.1935484 C68.3931368,23.2743841 69.7412764,22.9667889 70.928,22.3064516 C71.8100442,21.7780935 72.3372116,20.8079452 72.304,19.7741935 C72.3224125,19.0784737 72.0630183,18.4044206 71.584,17.9032258 C70.7763752,17.220965 69.8237719,16.7353034 68.8,16.483871 L64.944,15.2580645 C63.3202958,14.8032658 61.8739631,13.8575382 60.8,12.5483871 C59.9423133,11.4368091 59.4751913,10.0695284 59.472,8.66129032 C59.4496855,7.62038241 59.6979036,6.5917008 60.192,5.67741935 C60.6701186,4.81737653 61.3181365,4.0653227 62.096,3.46774194 C62.911543,2.84263844 63.8332681,2.37259365 64.816,2.08064516 C65.9027803,1.7645105 67.0288919,1.60699566 68.16,1.61274303 C68.7590986,1.61237128 69.3576294,1.65008114 69.952,1.72580645 C70.56,1.80107527 71.136,1.90322581 71.68,2.03225806 C72.224,2.16129032 72.7306667,2.30107527 73.2,2.4516129 C73.5863453,2.57376252 73.9611539,2.73029258 74.32,2.91935484 C74.6230271,3.08404034 74.8897442,3.30901155 75.104,3.58064516 C75.2731656,3.84417042 75.3570233,4.15412808 75.344,4.46774194 L75.344,5.74193548 C75.344,6.30107527 75.1413333,6.58064516 74.736,6.58064516 C74.377314,6.54026214 74.0296728,6.43074817 73.712,6.25806452 C72.0975036,5.55107948 70.3520464,5.1991728 68.592,5.22580645 C67.3677912,5.16165388 66.1483655,5.42308016 65.056,5.98387097 C64.2214494,6.47525253 63.732557,7.39853853 63.792,8.37096774 C63.7758694,9.08835127 64.0605128,9.77934687 64.576,10.2741935 C65.4384435,10.9695936 66.4358801,11.475081 67.504,11.7580645 L71.28,12.9032258 C72.8789879,13.3221724 74.313363,14.2223702 75.392,15.483871 C76.2379481,16.5907348 76.6787917,17.9581156 76.64,19.3548387 C76.6541018,20.4341298 76.4127644,21.5012606 75.936,22.4677419 C75.4700578,23.391028 74.8092561,24.2002943 74,24.8387097 C73.1179115,25.5254749 72.1129774,26.034732 71.04,26.3387097 C69.8154975,26.6760653 68.5491242,26.8336015 67.28,26.8064516 Z" id="Shape" fill-rule="nonzero"></path>
                <path d="M72.304,40.016129 C63.552,46.5322581 50.848,50 40,50 C25.3639045,50.0971607 11.2211366,44.6717436 0.352,34.7903226 C-0.464,34.0483871 0.256,33.0322581 1.248,33.5967742 C13.3054987,40.549619 26.9571806,44.202745 40.848,44.1935484 C51.2215529,44.1373712 61.4819301,42.0161267 71.04,37.9516129 C72.512,37.3225806 73.76,38.9354839 72.304,40.016129 Z" id="Path"></path>
                <path d="M75.952,35.8225806 C74.832,34.3709677 68.544,35.1451613 65.728,35.483871 C64.88,35.5806452 64.736,34.8387097 65.504,34.2903226 C70.512,30.7419355 78.736,31.7580645 79.68,32.9516129 C80.624,34.1451613 79.424,42.4516129 74.736,46.4193548 C74.016,47.0322581 73.328,46.7096774 73.648,45.9032258 C74.704,43.2258065 77.072,37.2741935 75.952,35.8225806 Z" id="Path"></path>
            </g>
        </g>
    </g>
</svg>