<?xml version="1.0" encoding="UTF-8"?>
<svg width="110px" height="54px" viewBox="0 0 110 54" version="1.1" xmlns="http://www.w3.org/2000/svg" xmlns:xlink="http://www.w3.org/1999/xlink">
    <title>1 - Fundamentals/1 - Logos/Partners/Milka/Negative@1x</title>
    <g id="1---Fundamentals/1---Logos/Partners/Milka/Negative" stroke="none" stroke-width="1" fill="none" fill-rule="evenodd">
        <path d="M51.0238082,20.255303 C51.6827879,20.3232043 54.2050895,20.0968668 54.750452,22.5865788 C57.1136895,20.3232043 56.6592207,17.3129162 54.9776863,16.1359615 C52.1372566,14.1441919 49.092316,15.9548915 48.8196347,18.0145623 C48.6378472,19.3273195 49.4104441,20.1195006 51.0238082,20.255303 M109.40032,16.9960438 C107.832403,16.9507763 105.491889,19.5310232 103.605843,19.5310232 C102.356054,19.5310232 102.26516,18.5804059 103.015034,16.97341 C105.787293,11.0433689 102.424224,11.2244388 101.697074,11.7902825 C101.697074,11.7902825 104.105759,7.55777217 99.8564759,7.55777217 C94.6073618,7.58040592 89.9490571,11.9713524 87.5176492,18.4898709 C86.6314352,20.7079779 84.6772195,25.4610644 82.6093867,26.0495417 C80.6324476,26.5927516 80.6324476,24.0125047 79.3826585,23.537196 C87.767607,17.9013936 87.8585008,13.3520109 86.5405414,11.8129162 C85.3589226,10.4548915 81.382321,10.0248504 76.4740585,15.0948092 C77.6784007,10.590694 81.0869163,7.82937711 81.9049601,3.32526188 C82.3367054,0.654479989 80.3597663,-2.08420314 76.6331225,2.32937711 C74.1108209,5.31703143 72.7928615,10.7943977 70.3387303,17.7655911 C68.8844303,22.0207351 65.9758302,29.6483071 63.3853583,29.6709409 C62.2491864,29.6709409 61.9310583,28.6750561 62.2946333,25.8911055 C62.953613,20.4590067 67.3619599,14.2120932 68.8844303,9.70797793 C70.0206021,6.72032361 68.8844303,4.93225777 67.5891943,4.63801908 C65.8394896,4.32114666 63.3626349,5.95077629 61.5447599,10.4548915 C60.0904598,13.5557146 58.9088411,17.8334923 58.022627,22.6997475 C57.2045832,26.7511878 54.0005785,34.6956323 50.8874675,34.2882248 C49.7285722,34.1297886 50.910191,31.2326693 52.3417676,28.3129162 C53.5461098,25.845838 54.5232176,22.8581837 51.9554691,22.8581837 C48.0015909,22.8581837 45.1157143,30.9610644 44.6385221,37.0042742 C44.4112878,39.9466611 44.320394,43.3417228 46.5927378,43.3417228 C49.4104441,43.3417228 53.0461941,40.399336 56.4547098,35.2841096 C56.7046676,38.1359615 60.3404177,41.9157969 67.3846834,31.7532454 C67.4983005,33.2923401 67.8391521,35.600982 69.0207709,35.6688833 C69.0207709,35.6688833 70.1114959,35.963122 71.2249443,33.4507763 C72.3383928,30.9384306 73.5654584,27.7470726 73.8154162,27.1359615 C74.4062256,25.7100355 75.5196741,25.4610644 75.6332913,27.8602413 C75.7469085,30.3499532 76.4058882,32.1832866 78.4282741,32.1606528 C82.4048757,32.1380191 85.8588383,28.5166199 86.8359461,27.1359615 C87.404032,29.2861672 92.2895712,30.0330808 97.6068556,23.627731 C97.83409,25.3252619 99.3338369,27.7923401 106.014528,22.6092125 C110.241087,19.4178545 110.604662,17.0413113 109.40032,16.9960438 M75.7014616,21.1606528 C75.5423975,21.1832866 75.2697163,21.0248504 75.3833335,20.7532454 C75.928696,19.372587 76.7694632,18.1956323 77.8601882,17.2676487 C78.8145726,16.4528339 79.8598507,15.9548915 80.6324476,15.9548915 C81.3595976,15.9548915 81.7913429,16.3849327 81.745896,17.1092125 C81.7231726,17.6750561 81.3595976,18.3767022 80.7006179,18.9878133 C78.3601038,21.1606528 75.9059725,21.1606528 75.7014616,21.1606528 M98.4703462,14.1894594 C96.175279,17.7203236 96.9933228,18.127731 95.3345118,20.6627104 C93.993829,22.6997475 92.1305071,23.2203236 91.4260805,22.1791713 C90.721654,21.1153853 91.4260805,18.7841096 92.9939977,16.9507763 C94.5619149,15.1400767 99.5156244,12.5824635 98.4703462,14.1894594 M40.4346862,37.5248504 C41.0709424,25.6647681 47.5471222,15.819089 47.7516331,11.65448 C47.8425269,9.97958287 46.9563128,8.66682567 44.9339268,8.75736065 C41.5481346,8.91579686 35.4809767,13.7367845 32.4360361,19.8252619 C30.7545017,14.7100355 26.6870063,17.7429574 24.7782375,19.9836981 C25.1418125,10.3643565 22.1877656,9.54954172 20.4607844,9.61744295 C15.0753296,9.86641415 9.46264048,17.063945 6.41769982,22.2923401 C3.59999353,27.1359615 -3.55788936,41.5310232 2.14569352,42.3911055 C3.55454666,42.5948092 4.98612324,41.0104471 5.96323106,37.2985129 C9.68987486,23.3108586 14.1209452,20.1195006 15.9388202,20.255303 C20.7107422,20.617443 14.5526905,38.3170314 12.4394108,44.563945 C11.2577921,47.8911055 10.2579608,53.2779368 14.0754983,53.0968668 C18.3247812,52.9157969 20.1199328,42.2326693 21.1424875,36.4157969 C22.3013828,30.0557146 23.9147469,27.9960438 25.5508344,28.1318462 C27.4596032,28.3581837 26.6642829,32.1832866 25.3917704,35.8273195 C24.2555985,39.5618874 20.3471672,48.6606528 24.9373016,49.0680602 C29.5728829,49.2264965 29.368372,40.8746446 30.6408845,35.600982 C32.5723767,27.6565376 34.7311033,22.3149738 37.0716174,22.745015 C39.9347705,23.3561261 33.2540798,33.7676487 32.7996111,42.0063318 C32.4587595,48.4116816 35.3673595,53.0515993 39.5711955,51.2408997 C44.0022659,49.1585952 40.0938346,43.9302002 40.4346862,37.5248504" id="Shape" fill="#FFFFFF"></path>
    </g>
</svg>