<?xml version="1.0" encoding="utf-8"?>
<!-- Generator: Adobe Illustrator 27.8.0, SVG Export Plug-In . SVG Version: 6.00 Build 0)  -->
<svg version="1.1" id="Ebene_1" xmlns="http://www.w3.org/2000/svg" xmlns:xlink="http://www.w3.org/1999/xlink" x="0px" y="0px"
	 viewBox="0 0 89.1 49" style="enable-background:new 0 0 89.1 49;" xml:space="preserve">
<style type="text/css">
	.st0{fill:#FFFFFF;}
</style>
<path class="st0" d="M5.4,32.6H0v16.2h5.4c3.9,0,4-4.6,4-8.1c0-3.9-0.1-4.7-0.7-6C8.1,33.4,7,32.6,5.4,32.6z M5.6,43
	c0,1.2-0.1,2.5-1.1,2.5H3.7v-9.7h0.5c1.2,0,1.3,0.8,1.3,2.5V43z M28.7,36.8c0-2.7-1.1-4.2-3.7-4.2h-5.6v16.2h3.7v-6.4h0.7
	c0.7,0,1,0.2,1,1.6c0,0.8,0,4.7,0,4.7h3.7v-3.9c0-1,0-2-0.4-2.8c-0.4-0.8-1-1.2-1.8-1.3v0C27.8,40.5,28.7,39.4,28.7,36.8z
	 M23.7,39.4h-0.5v-3.6h0.4c0.8,0,1.4,0.3,1.4,1.7C25,39,24.3,39.4,23.7,39.4z M14.1,45h4.3v3.7h-8V32.6h8v3.7h-4.3v2.3h4v3.7h-4V45z
	 M36.7,40.3L36.7,40.3c0.8-0.3,2.1-1.2,2.1-3.7c0-2.7-1.4-4-3.7-4h-5.4v16.2h5.6c2.3,0,3.8-1.4,3.8-4.7
	C39.1,40.8,37.4,40.4,36.7,40.3z M33.4,35.8h0.5c0.8,0,1.1,0.5,1.1,1.6c0,1.2-0.6,1.5-1.1,1.5h-0.6V35.8z M34.1,45.5h-0.7v-3.7h0.7
	c0.9,0,1.2,0.9,1.2,1.9C35.3,44.8,34.9,45.5,34.1,45.5z M70.9,32.6l-3,16.2h3.7l0.4-2.5h2.7l0.4,2.5h3.7l-3-16.2H70.9z M72.5,42.7
	l0.9-6.6h0l0.9,6.6H72.5z M88.6,42c-0.4-0.8-1-1.2-1.8-1.3v0c1.3-0.2,2.2-1.3,2.2-3.9c0-2.7-1.1-4.2-3.7-4.2h-5.6v16.2h3.7v-6.4h0.7
	c0.7,0,1.1,0.2,1.1,1.6c0,0.8,0,4.7,0,4.7h3.7v-3.9C89.1,43.9,89,42.8,88.6,42z M84.1,39.4h-0.5v-3.6H84c0.8,0,1.4,0.3,1.4,1.7
	C85.4,39,84.7,39.4,84.1,39.4z M69.3,36.3h-2.6v12.5H63V36.3h-2.6v-3.7h8.9V36.3z M50.4,32.6l-4,9.8v6.4h-3.7v-6.4l-4-9.8h3.7
	l2.1,5.6h0l2.1-5.6H50.4z M59.8,43.8c0,3.7-1.5,5.2-5.2,5.2c-3,0-4.7-1.2-4.7-4.7v-1.2h3.7v1.5c0,0.8,0.4,1.4,1.1,1.4
	c0.7,0,1-0.7,1-1.4c0-1-0.3-1.3-0.9-1.6c-0.5-0.3-1.3-0.7-2-1.1c-2.1-1.2-2.9-2.1-2.9-4.5c0-2.2,0.6-3.4,1.5-4.2
	c0.7-0.5,1.7-1,3.2-1c4,0,4.7,2.2,4.7,4.9v0.9h-3.7v-0.9l0-0.7c0-0.7-0.3-1.3-0.9-1.3c-0.6,0-0.9,0.6-0.9,1.2
	C53.9,39.7,59.8,38,59.8,43.8z M40.5,20.3l-12.2-4.1l12.2-4.1L44.5,0l4.1,12.2l12.2,4.1l-12.2,4.1l-4.1,12.2L40.5,20.3z"/>
</svg>
