<?xml version="1.0" encoding="UTF-8"?>
<svg width="1200px" height="596px" viewBox="0 0 1200 596" version="1.1" xmlns="http://www.w3.org/2000/svg" xmlns:xlink="http://www.w3.org/1999/xlink">
    <title>EAS_FC_negative</title>
    <g id="EAS_FC_negative" stroke="none" stroke-width="1" fill="none" fill-rule="evenodd">
        <path d="M297.843172,23.7749528 C146.390183,23.7749528 23.6110761,146.553304 23.6110761,298.006293 C23.6110761,449.460038 146.390183,572.236123 297.843172,572.236123 C449.296161,572.236123 572.075267,449.460038 572.075267,298.006293 C572.075267,146.553304 449.296161,23.7749528 297.843172,23.7749528" id="Fill-1" fill="#141514"></path>
        <polyline id="Fill-2" fill="#FFFFFE" points="595.823789 37.4378855 666.717432 159.728383 737.98112 37.4378855 595.823789 37.4378855"></polyline>
        <path d="M981.930774,259.196224 L897.847703,403.486973 L885.160478,381.600755 L1040.13342,115.667464 L1065.57583,115.667464 L994.693518,237.295658 L1084.1158,237.295658 L1199.97734,37.4378855 C1199.97734,37.4378855 1051.71051,37.4378855 1027.39333,37.4378855 C995.924481,37.4378855 977.361863,66.7755821 977.361863,66.7755821 C977.361863,66.7755821 812.344871,350.116048 812.22404,350.157583 C803.758339,367.218125 803.758339,395.008433 812.382631,411.004909 C812.541221,411.333417 897.900566,558.520327 897.900566,558.520327 L1071.42102,259.196224 L981.930774,259.196224" id="Fill-3" fill="#FFFFFE"></path>
        <path d="M749.157206,215.797609 L865.079924,215.797609 L910.874764,137.210069 L794.907489,137.210069 L807.662681,115.323851 L923.629956,115.323851 L969.016992,37.4378855 C969.016992,37.4378855 828.188798,37.4378855 798.033984,37.4378855 C765.439899,37.4378855 746.281435,66.8533669 746.281435,66.8533669 L679.404657,181.6146 L724.124103,258.755192 L749.157206,215.797609" id="Fill-4" fill="#FFFFFE"></path>
        <path d="M205.746759,356.294273 L186.349654,356.294273 L186.349654,381.254122 L205.746759,381.254122 C207.387791,381.254122 208.793203,380.621271 209.842165,379.389553 C210.90623,378.11781 211.461296,376.575708 211.461296,374.63713 L211.461296,362.896916 C211.461296,360.935683 210.90623,359.403398 209.842165,358.155821 C208.793203,356.899937 207.387791,356.294273 205.746759,356.294273" id="Fill-5" fill="#FFFFFE"></path>
        <path d="M344.029201,356.294273 L325.407678,356.294273 L325.407678,379.308748 L344.029201,379.308748 C345.674009,379.308748 347.038641,378.707615 348.069478,377.528005 C349.098804,376.293266 349.588924,374.723222 349.588924,372.808811 L349.588924,362.896916 C349.588924,360.979484 349.098804,359.403398 348.069478,358.155821 C347.038641,356.899937 345.674009,356.294273 344.029201,356.294273" id="Fill-6" fill="#FFFFFE"></path>
        <path d="M273.936816,356.294273 L260.30107,356.294273 C258.523348,356.294273 257.158716,356.899937 256.088609,358.155821 C255.057772,359.403398 254.564632,360.979484 254.564632,362.896916 L254.564632,404.135683 C254.564632,406.006293 255.057772,407.563499 256.088609,408.820138 C257.158716,410.119824 258.523348,410.787413 260.30107,410.787413 L273.936816,410.787413 C275.581624,410.787413 276.965135,410.119824 278.013342,408.820138 C279.124229,407.563499 279.655129,406.006293 279.655129,404.135683 L279.655129,362.896916 C279.655129,360.979484 279.124229,359.403398 278.013342,358.155821 C276.965135,356.899937 275.581624,356.294273 273.936816,356.294273" id="Fill-7" fill="#FFFFFE"></path>
        <path d="M510.359471,353.737948 L510.359471,348.928886 C510.359471,348.721208 510.359471,348.475771 510.399497,348.082316 C510.263562,348.395721 510.219761,348.662303 510.024166,348.928886 L507.548647,352.747892 L507.309251,352.747892 L504.777848,348.86394 C504.641158,348.653241 504.464443,348.351919 504.302832,348.082316 C504.302832,348.395721 504.464443,348.653241 504.464443,348.928886 L504.464443,353.737948 L503.155695,353.737948 L503.155695,345.950409 L504.464443,345.950409 L507.510887,350.656765 L510.579987,345.950409 L511.764884,345.950409 L511.764884,353.737948 L510.359471,353.737948 Z M501.315293,347.287854 L498.290749,347.287854 L498.290749,353.737948 L496.763751,353.737948 L496.763751,347.287854 L493.736186,347.287854 L493.736186,345.950409 L501.315293,345.950409 L501.315293,347.287854 Z M492.63134,406.608181 C492.63134,411.376463 490.968408,415.428823 487.661422,418.723726 C484.297797,422.074512 480.258276,423.756325 475.489994,423.756325 L455.367149,423.756325 C450.558087,423.756325 446.599371,422.14248 443.335431,418.947262 C440.130396,415.742228 438.504468,411.77747 438.504468,406.906482 L438.504468,398.917306 L450.893392,398.917306 L452.751164,406.316677 C453.623411,409.363121 455.702454,410.939207 459.12725,410.939207 L472.759975,410.939207 C474.484833,410.939207 475.90837,410.325236 476.954311,409.040654 C477.965513,407.821775 478.478288,406.192826 478.478288,404.337319 L478.478288,395.541598 C478.478288,391.229452 476.59786,389.026558 472.759975,389.026558 L455.62467,389.026558 C450.893392,389.026558 446.81309,387.387791 443.531026,384.040025 C440.230082,380.680176 438.504468,376.647451 438.504468,371.909377 L438.504468,360.29377 C438.504468,355.637256 440.230082,351.633984 443.531026,348.314915 C446.81309,344.967149 450.893392,343.310258 455.62467,343.310258 L475.489994,343.310258 C480.258276,343.310258 484.217747,344.911265 487.502832,348.09742 C490.726746,351.314537 492.370799,355.270233 492.370799,360.092133 L492.370799,367.311768 L480.004531,367.311768 L478.142983,360.761989 C477.152926,357.646822 475.033858,356.117558 471.869604,356.117558 L458.372813,356.117558 C456.651731,356.117558 455.208559,356.741347 454.197357,358.004028 C453.167275,359.269729 452.633354,360.836753 452.633354,362.769289 L452.633354,369.539585 C452.633354,373.758087 454.572687,375.871869 458.372813,375.871869 L475.489994,375.871869 C480.17747,375.871869 484.198867,377.561989 487.502832,380.956576 C490.968408,384.350409 492.63134,388.343864 492.63134,393.000378 L492.63134,406.608181 Z M428.154563,356.294273 L407.513656,356.294273 L407.513656,423.756325 L393.26696,423.756325 L393.26696,356.294273 L372.823914,356.294273 L372.823914,343.310258 L428.154563,343.310258 L428.154563,356.294273 Z M352.003272,423.756325 L338.904468,392.271617 L325.407678,392.271617 L325.407678,423.756325 L311.179862,423.756325 L311.179862,343.310258 L346.744116,343.310258 C351.512398,343.310258 355.548899,344.967149 358.853619,348.314915 C362.176463,351.6 363.860541,355.637256 363.860541,360.249969 L363.860541,374.276904 C363.860541,377.919194 362.85236,381.254122 360.851101,384.182756 C358.753933,387.087225 356.10472,389.150409 353.014475,390.515041 L367.124481,423.756325 L352.003272,423.756325 Z M297.389301,324.148773 L103.493014,324.192574 L150.651731,249.685337 L116.039773,249.685337 L139.588169,212.445312 L283.793581,212.445312 L260.22404,249.685337 L195.573568,249.685337 L171.686847,286.961611 L275.780239,286.961611 L370.943486,136.710132 L489.40214,324.148773 L444.700063,324.148773 L421.167527,286.940466 L351.134047,286.940466 L374.685463,249.629452 L397.641032,249.629452 L370.943486,207.319824 L297.389301,324.148773 Z M293.84292,406.483575 C293.84292,411.376463 292.223033,415.428823 288.798238,418.723726 C285.434613,422.074512 281.478918,423.756325 276.688735,423.756325 L257.472121,423.756325 C252.684959,423.756325 248.629578,422.074512 245.284833,418.723726 C241.955947,415.428823 240.25601,411.376463 240.25601,406.483575 L240.25601,360.249969 C240.25601,355.637256 241.955947,351.6 245.284833,348.314915 C248.629578,344.967149 252.684959,343.310258 257.472121,343.310258 L276.688735,343.310258 C281.478918,343.310258 285.434613,344.967149 288.798238,348.262052 C292.223033,351.50107 293.84292,355.583638 293.84292,360.249969 L293.84292,406.483575 Z M225.692889,377.152675 C225.692889,381.880931 224.008055,385.898553 220.704091,389.224418 C217.300441,392.544242 213.226935,394.232096 208.516803,394.232096 L186.349654,394.232096 L186.349654,423.756325 L172.142983,423.756325 L172.142983,343.310258 L208.516803,343.310258 C213.226935,343.310258 217.300441,344.967149 220.704091,348.314915 C224.008055,351.6 225.692889,355.618376 225.692889,360.249969 L225.692889,377.152675 Z M155.478918,406.608181 C155.478918,411.376463 153.834865,415.428823 150.552801,418.723726 C147.226935,422.074512 143.149654,423.756325 138.480302,423.756325 L118.276652,423.756325 C113.486469,423.756325 109.471869,422.14248 106.263814,418.947262 C103.036879,415.742228 101.457772,411.77747 101.457772,406.906482 L101.457772,398.917306 L113.8618,398.917306 L115.686344,406.316677 C116.514789,409.363121 118.614978,410.939207 122.055632,410.939207 L135.713279,410.939207 C137.410195,410.939207 138.796728,410.325236 139.885714,409.040654 C140.897671,407.821775 141.411957,406.192826 141.411957,404.337319 L141.411957,395.541598 C141.411957,391.229452 139.507363,389.026558 135.713279,389.026558 L118.550031,389.026558 C113.8618,389.026558 109.785274,387.387791 106.403524,384.040025 C103.117684,380.680176 101.457772,376.647451 101.457772,371.909377 L101.457772,360.29377 C101.457772,355.637256 103.117684,351.633984 106.403524,348.314915 C109.785274,344.967149 113.8618,343.310258 118.550031,343.310258 L138.480302,343.310258 C143.149654,343.310258 147.14613,344.911265 150.434235,348.09742 C153.68005,351.314537 155.259157,355.270233 155.259157,360.092133 L155.259157,367.311768 L142.932159,367.311768 L141.071366,360.761989 C140.10321,357.646822 137.946381,356.117558 134.779106,356.117558 L121.320076,356.117558 C119.561233,356.117558 118.173946,356.741347 117.144619,358.004028 C116.039773,359.269729 115.565513,360.836753 115.565513,362.769289 L115.565513,369.539585 C115.565513,373.758087 117.464065,375.871869 121.320076,375.871869 L138.480302,375.871869 C143.112649,375.871869 147.130271,377.561989 150.475016,380.956576 C153.834865,384.350409 155.478918,388.343864 155.478918,393.000378 L155.478918,406.608181 Z M186.52939,138 L339.636249,138 L316.16866,175.147137 L163.117684,175.233228 L186.52939,138 Z M297.843172,0.163876652 C133.350283,0.163876652 0,133.51416 0,298.006293 C0,462.499937 133.350283,595.846444 297.843172,595.846444 C462.33606,595.846444 595.686344,462.499937 595.686344,298.006293 C595.686344,133.51416 462.33606,0.163876652 297.843172,0.163876652 L297.843172,0.163876652 Z" id="Fill-8" fill="#FFFFFE"></path>
    </g>
</svg>