<?xml version="1.0" encoding="UTF-8"?>
<svg width="100px" height="55px" viewBox="0 0 100 55" version="1.1" xmlns="http://www.w3.org/2000/svg" xmlns:xlink="http://www.w3.org/1999/xlink">
    <title>topps/white@1x</title>
    <defs>
        <polygon id="path-1" points="0.073950541 0.107962145 93.8692427 0.107962145 93.8692427 45.9912934 0.073950541 45.9912934"></polygon>
        <polygon id="path-3" points="0.00872093023 0.083988764 99.8579942 0.083988764 99.8579942 51.9979551 0.00872093023 51.9979551"></polygon>
        <polygon id="path-5" points="0.00872093023 0.083988764 99.8579942 0.083988764 99.8579942 51.9979551 0.00872093023 51.9979551"></polygon>
        <polygon id="path-7" points="0.00872093023 0.083988764 99.8579942 0.083988764 99.8579942 51.9979551 0.00872093023 51.9979551"></polygon>
        <polygon id="path-9" points="0.00872093023 0.083988764 99.8579942 0.083988764 99.8579942 51.9979551 0.00872093023 51.9979551"></polygon>
    </defs>
    <g id="01---Fundamentals" stroke="none" stroke-width="1" fill="none" fill-rule="evenodd">
        <g id="Logos" transform="translate(-1130.000000, -5198.000000)">
            <g id="Fundamentals/Logos/Partners/Topps/Positive" transform="translate(1130.000000, 5198.000000)">
                <g id="Fill-1-Clipped" transform="translate(3.000000, 9.000000)">
                    <mask id="mask-2" fill="white">
                        <use xlink:href="#path-1"></use>
                    </mask>
                    <g id="path-1"></g>
                    <path d="M78.2178794,14.8564038 C76.8780526,14.8564038 75.6248161,15.1731798 74.4788006,15.7997666 C73.5742504,15.1858044 72.4799567,14.8564038 71.3029954,14.8564038 L62.0828594,14.8564038 L65.3477249,7.3851041 L32.024507,7.3851041 L34.1647141,0.107962145 L17.7017836,0.107962145 L16.7638176,2.8644795 C16.5941236,3.3635142 16.4075765,3.90434069 16.2343957,4.4006183 L15.6000773,6.09173502 C15.5858393,6.09260568 15.5695672,6.09304101 15.5514065,6.09304101 L5.55021329,6.09304101 L0.073950541,20.3473817 L10.3514776,20.3473817 C9.83425966,21.767142 9.22289645,23.4492618 8.52494281,25.3734259 C6.64654096,30.5524164 4.7382102,35.8382082 4.71874189,35.8930599 C4.46521793,36.619918 3.30540031,40.3951104 5.39403091,43.3314196 C6.61661206,45.0499621 8.6025255,45.9963722 10.9860866,45.9963722 L27.4196692,45.9963722 L27.418507,46 L42.0326739,45.9902776 L45.209932,37.3750726 L47.4785719,37.3750726 L44.3373447,46 L53.5669243,45.9941956 L53.5660526,45.9963722 L77.3259691,45.9963722 C81.3368779,45.9963722 83.3403709,43.4482334 83.8912952,41.9453249 C84.0903369,41.4049338 85.8638423,36.962959 86.2908377,35.7538991 C86.4858114,35.2011735 88.8830294,28.0293817 88.9004637,27.4759306 L89.0716105,27.4766562 L93.8692427,14.8564038 L78.2178794,14.8564038" id="Fill-1" fill="#FFFFFF" fill-rule="nonzero" mask="url(#mask-2)"></path>
                </g>
                <polyline id="Fill-4" fill="#FFFFFF" fill-rule="nonzero" points="67.8763413 16.5288365 69 7 64.163476 8.61501392 63 17 67.8763413 16.5288365"></polyline>
                <g id="Group-10">
                    <g id="Fill-5-Clipped">
                        <mask id="mask-4" fill="white">
                            <use xlink:href="#path-3"></use>
                        </mask>
                        <g id="path-3"></g>
                        <polyline id="Fill-5" fill="#FFFFFF" fill-rule="nonzero" mask="url(#mask-4)" points="35.084157 9.9328764 36.2943314 0.083988764 31.0860465 1.75324719 29.8329942 10.4198652 35.084157 9.9328764"></polyline>
                    </g>
                    <g id="Fill-7-Clipped">
                        <mask id="mask-6" fill="white">
                            <use xlink:href="#path-5"></use>
                        </mask>
                        <g id="path-3"></g>
                        <polyline id="Fill-7" fill="#FFFFFF" fill-rule="nonzero" mask="url(#mask-6)" points="9.0619186 28.1525955 10.2719477 18.3035618 0 21.764191 2.9809593 29.3916854 9.0619186 28.1525955"></polyline>
                    </g>
                    <g id="Fill-8-Clipped">
                        <mask id="mask-8" fill="white">
                            <use xlink:href="#path-7"></use>
                        </mask>
                        <g id="path-3"></g>
                        <polyline id="Fill-8" fill="#FFFFFF" fill-rule="nonzero" mask="url(#mask-8)" points="11.0315407 51.9979551 7.69549419 45.2651236 4.94040698 45.0677865 7.77485465 51.6286966 11.0315407 51.9979551"></polyline>
                    </g>
                    <g id="Fill-9-Clipped">
                        <mask id="mask-10" fill="white">
                            <use xlink:href="#path-9"></use>
                        </mask>
                        <g id="path-3"></g>
                        <path d="M83.1950581,15.8823483 C81.7686047,15.8823483 80.4344477,16.2216629 79.2143895,16.8929888 C78.2513081,16.2352472 77.0863372,15.8823483 75.8332849,15.8823483 L66.0171512,15.8823483 L69.4930233,6.49503371 L34.015843,6.49503371 L36.2943314,0.083988764 L18.7674419,0.083988764 L17.76875,3.03644944 C17.5880814,3.57120225 17.3895349,4.15050562 17.2049419,4.68233708 L16.5297965,6.49357303 C16.5145349,6.49444944 16.4972384,6.49503371 16.477907,6.49503371 L5.83023256,6.49503371 L0,21.764191 L10.9418605,21.764191 C10.3911337,23.2850449 9.74026163,25.0869326 8.99723837,27.148236 C6.99767442,32.6958764 4.96569767,38.3578876 4.94520349,38.4168989 C4.67514535,39.1955843 3.44026163,43.2391685 5.66395349,46.3845843 C6.96555233,48.225618 9.07979651,49.2393258 11.6175872,49.2393258 L29.1133721,49.2393258 L29.112064,49.2432697 L44.6707849,49.2328989 L48.053343,40.0043596 L50.4690407,40.0043596 L47.124564,49.2432697 L56.9505814,49.2369888 L56.9498547,49.2393258 L82.2457849,49.2393258 C86.515843,49.2393258 88.6488372,46.5099101 89.2351744,44.899809 C89.447093,44.3210899 93.7741279,32.4796966 94.2289244,31.184809 C94.4367733,30.5927978 94.5498547,29.993191 94.568314,29.4003034 L94.7505814,29.4011798 L99.8579942,15.8823483 L83.1950581,15.8823483" id="Fill-9" fill="#FFFFFF" fill-rule="nonzero" mask="url(#mask-10)"></path>
                    </g>
                </g>
                <path d="M98,17.7175107 L83.3883419,17.7175107 C81.6138983,17.7175107 80.2523534,18.3490711 79.2711716,19.067678 C78.4621525,18.2049137 77.3000538,17.7175107 75.99862,17.7175107 L64.0457095,17.7175107 L67.5347775,8.37823613 L31.9520899,8.37823613 L34.2392284,2 L19.7610695,2 L19.0951789,3.95135574 C18.9107605,4.49223644 18.7078127,5.07903823 18.5197467,5.6159953 L17.7450143,7.67634097 C17.5808761,8.0072344 17.218313,8.37823613 16.417902,8.37823613 L6.73257931,8.37823613 L2,20.6628547 L12.9456125,20.6628547 C12.1950996,22.7095403 11.2366782,25.338668 10.2807372,27.9673599 C8.25038375,33.5499695 6.22936798,39.1325791 6.21915493,39.1619338 C5.98950731,39.8180532 4.93566693,43.2220267 6.7522759,45.7687581 C7.47754802,46.7855615 8.89657772,47.9973842 11.5391302,47.9973842 L31.122207,47.9973842 L31.1214775,48 L43.7001559,47.9917168 L47.0958476,38.8096783 L52.2804271,38.8096783 C52.3961263,38.8096783 52.5112419,38.8031389 52.6263576,38.7957276 L49.2646607,48 L59.021183,47.9937512 L59.0200157,47.9973842 L82.4354648,47.9973842 C85.9162166,47.9973842 87.6234,45.8800732 88.0822576,44.6311939 C88.2679891,44.1285323 92.629689,32.2989104 93.0881088,31.0052726 C93.4201787,30.0675232 93.4315589,29.1110276 93.1296905,28.2514603 L93.9829175,28.2558199 L98,17.7175107" id="Fill-11" fill="#FFFFFE" fill-rule="nonzero"></path>
                <path d="M21.5798875,5 C21.5798875,5 20.288109,8.77357128 20.2120365,8.77357128 C20.2120365,8.77357128 19.3000388,11.3394553 16.1841195,11.3394553 C13.0682001,11.3394553 8.50806633,11.3394553 8.50806633,11.3394553 L6,17.8299979 C6,17.8299979 16.9441175,17.8299979 16.8681904,17.8299979 C16.7921179,17.8299979 8.73613847,40.0183081 8.73613847,40.0183081 C8.73613847,40.0183081 6.98821566,45 11.3202773,45 C11.396059,45 31.8400795,45 31.8400795,45 L34.1960008,38.5847122 L19.8321102,38.5847122 C19.8321102,38.5847122 17.6281885,38.3580812 18.3881866,36.169771 L24.2400989,20.3204827 C24.2400989,20.3204827 25.2278782,17.8299979 28.1920888,17.8299979 L60.5678608,17.8299979 L63,11.3394553 L27.5840904,11.3394553 L29.8639391,5 L21.5798875,5" id="Fill-12" fill="#FFFFFF" fill-rule="nonzero"></path>
                <path d="M94,20 L92.1599945,24.8664439 L86.0430639,24.8371137 C86.0430639,24.8371137 85.6961547,24.8371137 85.6190145,25.1081959 C85.5420219,25.3788337 84.6555744,27.7784296 84.6555744,27.7784296 C84.6555744,27.7784296 84.6170781,28.0107011 84.9638398,28.0107011 C85.3493929,28.0107011 89.6261704,28.0107011 89.6261704,28.0107011 C89.6261704,28.0107011 90.9748687,28.3202977 90.5127655,29.6358611 C90.0502198,30.9514244 85.4648818,43.4905314 85.4648818,43.4905314 C85.4648818,43.4905314 84.9148713,45 82.4977162,45 C79.4149142,45 63,45 63,45 L65.3889835,38.4208499 L80.5709834,38.4208499 C80.5709834,38.4208499 80.7541727,38.4112213 80.8696616,38.1013285 C80.985593,37.7920281 82.4977162,33.7380902 82.4977162,33.7380902 L77.9895183,33.7380902 C77.9895183,33.7380902 75.7160237,33.5446293 76.4483385,31.5321032 C77.1803584,29.5201697 79.8776073,22.0122298 79.8776073,22.0122298 C79.8776073,22.0122298 81.0723203,20 83.4610089,20 C85.7728523,20 94,20 94,20" id="Fill-13" fill="#FFFFFF" fill-rule="nonzero"></path>
                <path d="M32.3296063,30.0041215 C32.7054366,30.0041215 33.1089016,29.7365055 33.2309301,29.4066399 L34.6504751,25.5765896 C34.7726491,25.2468662 34.5669896,24.9792502 34.1914501,24.9792502 L30.6772035,24.9792502 C30.301664,24.9792502 29.8979081,25.2468662 29.7758796,25.5765896 L28.3566255,29.4066399 C28.2344515,29.7365055 28.4398201,30.0041215 28.8156505,30.0041215 L32.3296063,30.0041215 Z M23.4753395,35 C22.3538116,35 21.7406147,34.2025525 22.1052458,33.2179301 L26.3425005,21.7820699 C26.707277,20.7977317 27.9119995,20 29.0335274,20 L39.5243434,20 C40.6458713,20 41.2595045,20.7977317 40.894728,21.7820699 L36.6574733,33.2179301 C36.2926968,34.2025525 35.0879743,35 33.9664464,35 L23.4753395,35 L23.4753395,35 Z" id="Fill-14" fill="#FFFFFF" fill-rule="nonzero"></path>
                <path d="M64.0706192,30.4273568 L67.8028848,30.4273568 C68.1782192,30.4273568 68.5814638,30.1484269 68.7038617,29.8046157 L70.1221953,25.8126444 C70.2440118,25.4689815 70.0390461,25.1900515 69.6637118,25.1900515 L65.9503437,25.1900515 L64.0706192,30.4273568 Z M62.7980875,35.6344433 L59.4145543,44.9952598 L53,45 L61.9241486,20 L75.5251494,20.0002963 C76.6460647,20.0002963 77.2593628,20.8317533 76.8947855,21.8577058 L72.6598452,33.7770338 C72.2954133,34.8032826 71.0912034,35.6344433 69.9705788,35.6344433 L62.7980875,35.6344433 L62.7980875,35.6344433 Z" id="Fill-15" fill="#FFFFFF" fill-rule="nonzero"></path>
                <path d="M46.070285,30.4273568 L49.8024395,30.4273568 C50.1780681,30.4273568 50.5814617,30.1484269 50.7035701,29.8046157 L52.1220621,25.8126444 C52.2441704,25.4689815 52.0389121,25.1900515 51.6632836,25.1900515 L47.9501721,25.1900515 L46.070285,30.4273568 Z M44.7980322,35.6344433 L41.4143226,44.9952598 L35,45 L43.9240853,20 L57.5253566,20.0002963 C58.6462822,20.0002963 59.2590045,20.8317533 58.8950053,21.8577058 L54.6597353,33.7770338 C54.2954454,34.8032826 53.0913698,35.6344433 51.9707349,35.6344433 L44.7980322,35.6344433 L44.7980322,35.6344433 Z" id="Fill-16" fill="#FFFFFF" fill-rule="nonzero"></path>
                <path d="M48.245107,25.6862733 L51.9718473,25.6862733 C52.3488545,25.6862733 52.5548662,25.9599107 52.4323097,26.2970528 L51.0086112,30.2132791 C50.8860546,30.5505666 50.4811803,30.824204 50.1041731,30.824204 L46.3583198,30.824204 L48.245107,25.6862733 Z M52.2804271,35.9324894 C53.4051752,35.9324894 54.6136703,35.1170994 54.9792973,34.1103231 L59.2301127,22.4171566 C59.5954479,21.4106709 58.9804767,20.5949903 57.8554368,20.5949903 L44.2042427,20.5946996 L35.2474019,45.1203407 L41.685268,45.1156904 L45.0813974,35.9324894 L52.2804271,35.9324894 Z M66.3885821,25.6862733 L70.1156141,25.6862733 C70.4923296,25.6862733 70.6980495,25.9599107 70.5757847,26.2970528 L69.1522321,30.2132791 C69.0293838,30.5505666 68.6246554,30.824204 68.2479399,30.824204 L64.5019408,30.824204 L66.3885821,25.6862733 Z M70.4236104,35.9324894 C71.5483585,35.9324894 72.7569994,35.1170994 73.1227724,34.1103231 L77.3732959,22.4171566 C77.7392148,21.4106709 77.1236599,20.5949903 75.99862,20.5949903 L62.3475718,20.5946996 L53.3905852,45.1203407 L59.828743,45.1156904 L63.2247265,35.9324894 L70.4236104,35.9324894 Z M28.3216441,30.824204 C27.9446368,30.824204 27.7386251,30.5505666 27.8611816,30.2132791 L29.2848801,26.2970528 C29.4072908,25.9599107 29.812311,25.6862733 30.1890264,25.6862733 L33.7142779,25.6862733 C34.0909934,25.6862733 34.2972969,25.9599107 34.1747403,26.2970528 L32.75075,30.2132791 C32.6283394,30.5505666 32.223611,30.824204 31.8466037,30.824204 L28.3216441,30.824204 Z M33.4885696,35.9324894 C34.6136095,35.9324894 35.8221046,35.1170994 36.1880234,34.1103231 L40.438547,22.4171566 C40.8044658,21.4106709 40.1889109,20.5949903 39.063871,20.5949903 L28.5402032,20.5949903 C27.4151633,20.5949903 26.2066683,21.4106709 25.8407494,22.4171566 L21.5902259,34.1103231 C21.2244529,35.1170994 21.8395701,35.9324894 22.96461,35.9324894 L33.4885696,35.9324894 Z M83.3883419,20.5949903 C81.0254809,20.5949903 79.8436857,22.5690159 79.8436857,22.5690159 C79.8436857,22.5690159 77.1756005,29.9344102 76.4514956,31.9081452 C75.7270989,33.8824615 77.9760115,34.0722493 77.9760115,34.0722493 L82.4354648,34.0722493 C82.4354648,34.0722493 80.9396914,38.0492192 80.8250135,38.3526472 C80.7107732,38.6566564 80.5295646,38.6661022 80.5295646,38.6661022 L65.5117192,38.6661022 L63.1485664,45.1203407 C63.1485664,45.1203407 79.3859954,45.1203407 82.4354648,45.1203407 C84.8264846,45.1203407 85.3705481,43.6395308 85.3705481,43.6395308 C85.3705481,43.6395308 89.9063075,31.3384911 90.3638519,30.047905 C90.8209586,28.7573189 89.4868431,28.4536003 89.4868431,28.4536003 C89.4868431,28.4536003 85.2563079,28.4536003 84.8749236,28.4536003 C84.5319112,28.4536003 84.5699913,28.2257387 84.5699913,28.2257387 C84.5699913,28.2257387 85.4468542,25.8717015 85.5230143,25.606202 C85.5993203,25.3402666 85.9424787,25.3402666 85.9424787,25.3402666 L91.9932703,25.3690399 L93.8133809,20.5949903 C93.8133809,20.5949903 85.6751887,20.5949903 83.3883419,20.5949903 Z M21.8302324,4.87747952 C21.8302324,4.87747952 20.5344888,8.67396215 20.4581827,8.67396215 C20.4581827,8.67396215 19.5433857,11.255425 16.417902,11.255425 C13.2924183,11.255425 8.71828713,11.255425 8.71828713,11.255425 L6.20252226,17.7853751 C6.20252226,17.7853751 17.1802329,17.7853751 17.1040728,17.7853751 C17.0277667,17.7853751 8.94705934,40.1084023 8.94705934,40.1084023 C8.94705934,40.1084023 7.19377126,45.1203407 11.5391302,45.1203407 C11.6151445,45.1203407 32.1219182,45.1203407 32.1219182,45.1203407 L34.485071,38.6661022 L20.0770903,38.6661022 C20.0770903,38.6661022 17.8664036,38.4380953 18.6287345,36.2364987 L24.4986094,20.290981 C24.4986094,20.290981 25.4894207,17.7853751 28.46273,17.7853751 L60.9378798,17.7853751 L63.3774845,11.255425 L27.8528653,11.255425 L30.139712,4.87747952 L21.8302324,4.87747952 Z M93.9829175,28.2558199 L93.1296905,28.2514603 C93.4315589,29.1110276 93.4201787,30.0675232 93.0881088,31.0052726 C92.629689,32.2989104 88.2679891,44.1285323 88.0822576,44.6311939 C87.6234,45.8800732 85.9162166,47.9973842 82.4354648,47.9973842 L59.0200157,47.9973842 L59.021183,47.9937512 L49.2646607,48 L52.6263576,38.7957276 C52.5112419,38.8031389 52.3961263,38.8096783 52.2804271,38.8096783 L47.0958476,38.8096783 L43.7001559,47.9917168 L31.1214775,48 L31.122207,47.9973842 L11.5391302,47.9973842 C8.89657772,47.9973842 7.47754802,46.7855615 6.7522759,45.7687581 C4.93566693,43.2220267 5.98950731,39.8180532 6.21915493,39.1619338 C6.22936798,39.1325791 8.25038375,33.5499695 10.2807372,27.9673599 C11.2366782,25.338668 12.1950996,22.7095403 12.9456125,20.6628547 L2,20.6628547 L6.73257931,8.37823613 L16.417902,8.37823613 C17.218313,8.37823613 17.5808761,8.0072344 17.7450143,7.67634097 L18.5197467,5.6159953 C18.7078127,5.07903823 18.9107605,4.49223644 19.0951789,3.95135574 L19.7610695,2 L34.2392284,2 L31.9520899,8.37823613 L67.5347775,8.37823613 L64.0457095,17.7175107 L75.99862,17.7175107 C77.3000538,17.7175107 78.4621525,18.2049137 79.2711716,19.067678 C80.2523534,18.3490711 81.6138983,17.7175107 83.3883419,17.7175107 L98,17.7175107 L93.9829175,28.2558199 L93.9829175,28.2558199 Z" id="Fill-17" fill="#000000" fill-rule="nonzero"></path>
            </g>
        </g>
    </g>
</svg>